<?xml version="1.0" encoding="UTF-8" standalone="no"?> <svg width="64" height="64" viewBox="0 0 64 64" fill="none" xmlns="http://www.w3.org/2000/svg">
<path d="M57.2 27.3C56.03 26.46 54.69 25.51 54.43 24.71C54.17 23.91 54.68 22.24 55.15 20.83C55.86 18.7 56.59 16.51 55.46 14.95C54.33 13.39 52 13.4 49.73 13.42C48.25 13.42 46.58 13.42 45.86 12.92C45.14 12.42 44.66 10.82 44.22 9.43001C43.54 7.26001 42.84 5.00001 41 4.41001C39.16 3.82001 37.36 5.19001 35.58 6.51001C34.32 7.40001 33 8.42001 32 8.42001C31 8.42001 29.68 7.42001 28.46 6.51001C26.68 5.19001 24.84 3.83001 23 4.41001C21.16 4.99001 20.42 7.26001 19.74 9.41001C19.3 10.8 18.81 12.41 18.1 12.9C17.39 13.39 15.7 13.41 14.23 13.4C11.98 13.4 9.64 13.4 8.5 14.93C7.36 16.46 8.1 18.68 8.81 20.81C9.28 22.22 9.81 23.81 9.53 24.69C9.25 25.57 8 26.46 6.8 27.3C4.93 28.62 3 30 3 32C3 34 4.93 35.38 6.8 36.7C7.97 37.54 9.31 38.49 9.57 39.29C9.83 40.09 9.32 41.76 8.85 43.17C8.14 45.3 7.41 47.49 8.54 49.05C9.67 50.61 12 50.6 14.27 50.58C15.74 50.58 17.42 50.58 18.14 51.08C18.86 51.58 19.34 53.18 19.78 54.57C20.46 56.74 21.16 58.98 23.04 59.57C23.3279 59.6612 23.628 59.7084 23.93 59.71C25.44 59.71 26.93 58.57 28.46 57.47C29.68 56.58 31.05 55.56 32 55.56C32.95 55.56 34.32 56.56 35.54 57.47C37.32 58.79 39.16 60.15 40.96 59.57C42.76 58.99 43.54 56.72 44.22 54.57C44.66 53.18 45.15 51.57 45.86 51.08C46.57 50.59 48.26 50.56 49.73 50.58C51.98 50.58 54.32 50.58 55.46 49.05C56.6 47.52 55.86 45.3 55.15 43.17C54.68 41.76 54.15 40.17 54.43 39.29C54.71 38.41 56 37.54 57.2 36.7C59.07 35.38 61 34 61 32C61 30 59.07 28.62 57.2 27.3ZM56 35.07C54.44 36.19 53 37.24 52.49 38.67C51.98 40.1 52.62 42.02 53.22 43.8C53.74 45.37 54.33 47.15 53.8 47.87C53.27 48.59 51.37 48.59 49.71 48.58C47.84 48.58 45.9 48.58 44.64 49.46C43.38 50.34 42.87 52.2 42.31 54C41.81 55.61 41.24 57.43 40.31 57.72C39.38 58.01 38 56.88 36.68 55.91C35.15 54.78 33.56 53.61 31.96 53.61C30.36 53.61 28.77 54.78 27.24 55.91C25.92 56.91 24.43 57.98 23.61 57.72C22.79 57.46 22.15 55.61 21.61 54C21.05 52.23 20.48 50.39 19.24 49.49C17.9475 48.7747 16.4722 48.458 15 48.58H14.25C12.58 48.58 10.69 48.58 10.16 47.87C9.63 47.16 10.22 45.37 10.74 43.8C11.34 42.02 11.96 40.17 11.47 38.67C10.98 37.17 9.47 36.19 7.96 35.07C6.57 34.09 5 33 5 32C5 31 6.57 29.91 8 28.93C9.56 27.81 11 26.76 11.51 25.33C12.02 23.9 11.38 21.98 10.78 20.2C10.26 18.63 9.67 16.85 10.2 16.13C10.73 15.41 12.63 15.41 14.29 15.42C16.16 15.42 18.1 15.42 19.36 14.54C20.62 13.66 21.13 11.8 21.69 10C22.19 8.39001 22.76 6.57001 23.69 6.28001C24.62 5.99001 26 7.12001 27.32 8.09001C28.85 9.22001 30.44 10.39 32.04 10.39C33.64 10.39 35.23 9.22001 36.76 8.09001C38.08 7.09001 39.57 6.02001 40.39 6.28001C41.21 6.54001 41.85 8.39001 42.39 10C42.95 11.77 43.52 13.61 44.76 14.51C46 15.41 47.95 15.41 49.83 15.39C51.5 15.39 53.39 15.39 53.92 16.1C54.45 16.81 53.86 18.6 53.34 20.17C52.74 21.95 52.12 23.8 52.61 25.3C53.1 26.8 54.56 27.78 56.12 28.9C57.51 29.9 59.12 31 59.12 31.97C59.12 32.94 57.43 34.09 56 35.07Z" fill="white"/>
<path d="M32 12.94C28.2302 12.94 24.5452 14.0579 21.4108 16.1522C18.2764 18.2465 15.8334 21.2233 14.3908 24.7061C12.9482 28.1888 12.5707 32.0211 13.3062 35.7184C14.0416 39.4157 15.8569 42.8119 18.5225 45.4775C21.1881 48.143 24.5843 49.9583 28.2815 50.6938C31.9788 51.4292 35.8111 51.0518 39.2939 49.6091C42.7767 48.1665 45.7534 45.7236 47.8478 42.5892C49.9421 39.4548 51.06 35.7697 51.06 32C51.0547 26.9466 49.0449 22.1017 45.4716 18.5284C41.8983 14.9551 37.0534 12.9453 32 12.94V12.94ZM32 49.06C28.6258 49.06 25.3274 48.0595 22.5219 46.1849C19.7164 44.3103 17.5298 41.6459 16.2386 38.5286C14.9473 35.4113 14.6095 31.9811 15.2678 28.6718C15.926 25.3624 17.5508 22.3226 19.9367 19.9368C22.3226 17.5509 25.3624 15.9261 28.6717 15.2678C31.981 14.6095 35.4112 14.9474 38.5285 16.2386C41.6458 17.5298 44.3102 19.7165 46.1848 22.522C48.0594 25.3275 49.06 28.6259 49.06 32C49.0547 36.523 47.2556 40.8592 44.0573 44.0574C40.8591 47.2556 36.5229 49.0547 32 49.06V49.06Z" fill="white"/>
<path d="M31.8701 25.48C31.8701 24.3626 31.5387 23.2702 30.9179 22.341C30.297 21.4119 29.4146 20.6877 28.3822 20.2601C27.3498 19.8325 26.2138 19.7206 25.1178 19.9386C24.0218 20.1566 23.0151 20.6947 22.2249 21.4849C21.4347 22.275 20.8966 23.2818 20.6786 24.3778C20.4606 25.4738 20.5725 26.6098 21.0002 27.6422C21.4278 28.6746 22.152 29.557 23.0811 30.1778C24.0102 30.7987 25.1026 31.13 26.2201 31.13C27.7177 31.1274 29.1533 30.5313 30.2123 29.4723C31.2713 28.4132 31.8674 26.9777 31.8701 25.48V25.48ZM22.5701 25.48C22.5701 24.7581 22.7841 24.0524 23.1852 23.4522C23.5863 22.852 24.1563 22.3841 24.8233 22.1079C25.4902 21.8316 26.2241 21.7593 26.9321 21.9002C27.6402 22.041 28.2905 22.3886 28.801 22.8991C29.3115 23.4095 29.6591 24.0599 29.7999 24.7679C29.9408 25.476 29.8685 26.2099 29.5922 26.8768C29.316 27.5438 28.8481 28.1138 28.2479 28.5149C27.6477 28.916 26.942 29.13 26.2201 29.13C25.2528 29.1274 24.326 28.742 23.642 28.058C22.9581 27.3741 22.5727 26.4472 22.5701 25.48V25.48Z" fill="white"/>
<path d="M38.4901 32.1C37.3726 32.1 36.2803 32.4314 35.3511 33.0522C34.422 33.6731 33.6978 34.5555 33.2702 35.5879C32.8425 36.6203 32.7306 37.7563 32.9487 38.8523C33.1667 39.9483 33.7048 40.955 34.4949 41.7452C35.2851 42.5354 36.2918 43.0735 37.3878 43.2915C38.4838 43.5095 39.6198 43.3976 40.6523 42.97C41.6847 42.5423 42.5671 41.8181 43.1879 40.889C43.8087 39.9599 44.1401 38.8675 44.1401 37.75C44.1374 36.2524 43.5413 34.8168 42.4823 33.7578C41.4233 32.6988 39.9878 32.1027 38.4901 32.1V32.1ZM38.4901 41.4C37.7682 41.4 37.0625 41.186 36.4623 40.7849C35.862 40.3838 35.3942 39.8138 35.1179 39.1468C34.8417 38.4799 34.7694 37.746 34.9102 37.038C35.0511 36.3299 35.3987 35.6796 35.9092 35.1691C36.4196 34.6586 37.07 34.311 37.778 34.1702C38.486 34.0293 39.2199 34.1016 39.8869 34.3779C40.5538 34.6541 41.1239 35.122 41.525 35.7222C41.926 36.3224 42.1401 37.0281 42.1401 37.75C42.1375 38.7173 41.7521 39.6441 41.0681 40.3281C40.3842 41.012 39.4573 41.3974 38.4901 41.4V41.4Z" fill="white"/>
<path d="M41.1701 22.83C40.9827 22.6438 40.7293 22.5392 40.4651 22.5392C40.2009 22.5392 39.9475 22.6438 39.7601 22.83L22.8301 39.76C22.6438 39.9474 22.5393 40.2009 22.5393 40.465C22.5393 40.7292 22.6438 40.9827 22.8301 41.17C23.0175 41.3563 23.2709 41.4608 23.5351 41.4608C23.7993 41.4608 24.0527 41.3563 24.2401 41.17L41.1701 24.24C41.3563 24.0527 41.4609 23.7992 41.4609 23.535C41.4609 23.2709 41.3563 23.0174 41.1701 22.83V22.83Z" fill="white"/>
</svg>
